<svg xmlns="http://www.w3.org/2000/svg" width="256" height="256" viewBox="0 0 256 256" role="img" aria-label="Capybara im Superhelden-Anzug">
  <defs>
    <linearGradient id="bg" x1="0" y1="0" x2="1" y2="1">
      <stop offset="0" stop-color="#15183a"/>
      <stop offset="1" stop-color="#0b1027"/>
    </linearGradient>
    <linearGradient id="cape" x1="0" y1="0" x2="1" y2="1">
      <stop offset="0" stop-color="#ff5da8"/>
      <stop offset="1" stop-color="#9b6cff"/>
    </linearGradient>
    <linearGradient id="suit" x1="0" y1="0" x2="1" y2="1">
      <stop offset="0" stop-color="#42e8ff"/>
      <stop offset="1" stop-color="#52f2a4"/>
    </linearGradient>
  </defs>
  <rect width="256" height="256" rx="44" fill="url(#bg)"/>
  <circle cx="128" cy="128" r="88" fill="rgba(155,108,255,0.10)"/>
  <path d="M84 163c-18 7-28 20-31 42 20-12 38-15 55-14z" fill="url(#cape)" opacity=".95"/>
  <path d="M172 163c18 7 28 20 31 42-20-12-38-15-55-14z" fill="url(#cape)" opacity=".95"/>
  <ellipse cx="128" cy="154" rx="48" ry="42" fill="url(#suit)"/>
  <path d="M109 128h38v30c0 7-9 14-19 14s-19-7-19-14z" fill="#133351" opacity=".7"/>
  <path d="M128 136l10 8-4 13h-12l-4-13z" fill="#ffe26d"/>
  <ellipse cx="128" cy="109" rx="54" ry="44" fill="#9b775f"/>
  <ellipse cx="89" cy="74" rx="15" ry="18" fill="#9b775f"/>
  <ellipse cx="167" cy="74" rx="15" ry="18" fill="#9b775f"/>
  <ellipse cx="89" cy="72" rx="7" ry="9" fill="#7a5d4a"/>
  <ellipse cx="167" cy="72" rx="7" ry="9" fill="#7a5d4a"/>
  <ellipse cx="128" cy="117" rx="26" ry="17" fill="#c39a7f"/>
  <circle cx="109" cy="104" r="5" fill="#1f2233"/>
  <circle cx="147" cy="104" r="5" fill="#1f2233"/>
  <ellipse cx="128" cy="118" rx="6" ry="4" fill="#5b4539"/>
  <path d="M119 126c3 4 6 6 9 6s6-2 9-6" fill="none" stroke="#5b4539" stroke-width="4" stroke-linecap="round"/>
  <path d="M99 93c9-18 21-27 29-27s20 9 29 27" fill="none" stroke="#ffe26d" stroke-width="11" stroke-linecap="round"/>
  <path d="M99 93c9 7 19 11 29 11s20-4 29-11" fill="none" stroke="#2a366e" stroke-width="9" stroke-linecap="round"/>
  <circle cx="97" cy="158" r="9" fill="#9b775f"/>
  <circle cx="159" cy="158" r="9" fill="#9b775f"/>
  <text x="128" y="155" text-anchor="middle" font-size="16" font-family="Arial, sans-serif" font-weight="700" fill="#ffffff">C</text>
</svg>
