<svg xmlns="http://www.w3.org/2000/svg" width="128" height="128" viewBox="0 0 128 128" role="img" aria-label="Capybara Avatar">
  <defs>
    <linearGradient id="bg" x1="0" y1="0" x2="1" y2="1">
      <stop offset="0" stop-color="#3a1622"/>
      <stop offset="1" stop-color="#1b1026"/>
    </linearGradient>
  </defs>
  <rect width="128" height="128" rx="28" fill="url(#bg)"/>
  <circle cx="64" cy="64" r="45" fill="rgba(255,255,255,0.08)"/>
  <ellipse cx="64" cy="67" rx="33" ry="27" fill="#9b775f"/>
  <ellipse cx="40" cy="40" rx="10" ry="12" fill="#9b775f"/>
  <ellipse cx="88" cy="40" rx="10" ry="12" fill="#9b775f"/>
  <ellipse cx="40" cy="38" rx="5" ry="6" fill="#7a5d4a"/>
  <ellipse cx="88" cy="38" rx="5" ry="6" fill="#7a5d4a"/>
  <ellipse cx="64" cy="71" rx="16" ry="10" fill="#c39a7f"/>
  <circle cx="53" cy="62" r="3.8" fill="#1f2233"/>
  <circle cx="75" cy="62" r="3.8" fill="#1f2233"/>
  <ellipse cx="64" cy="72" rx="3.8" ry="2.6" fill="#5b4539"/>
  <path d="M58 77c2 2 4 3 6 3s4-1 6-3" fill="none" stroke="#5b4539" stroke-width="2.8" stroke-linecap="round"/>
  <path d="M46 40h36l-4 10H50z" fill="#ffc65c"/><rect x="44" y="48" width="40" height="6" rx="3" fill="#6b3b1e"/>
  <circle cx="101" cy="101" r="14" fill="#ff5da8" opacity="0.95"/>
  <text x="101" y="106" text-anchor="middle" font-size="12" font-family="Arial, sans-serif" font-weight="700" fill="#fff">M</text>
</svg>
