<svg xmlns="http://www.w3.org/2000/svg" viewBox="0 0 900 1100">
  <defs>
    <linearGradient id="bg" x1="0" y1="0" x2="1" y2="1"><stop stop-color="#31184f"/><stop offset=".45" stop-color="#10152d"/><stop offset="1" stop-color="#07111b"/></linearGradient>
    <radialGradient id="glow"><stop stop-color="#a978ff" stop-opacity=".9"/><stop offset="1" stop-color="#a978ff" stop-opacity="0"/></radialGradient>
    <filter id="blur"><feGaussianBlur stdDeviation="24"/></filter>
  </defs>
  <rect width="900" height="1100" fill="url(#bg)"/>
  <circle cx="665" cy="245" r="230" fill="url(#glow)" filter="url(#blur)"/>
  <path d="M0 705 140 620 255 670 380 560 510 635 646 520 900 615V1100H0Z" fill="#0b0e19"/>
  <path d="M0 775 150 710 295 760 455 650 600 716 760 620 900 670V1100H0Z" fill="#111529"/>
  <g fill="none" stroke="#8c72ff" stroke-opacity=".38">
    <path d="M110 0v1100M250 0v1100M390 0v1100M530 0v1100M670 0v1100M810 0v1100"/>
    <path d="M0 130h900M0 270h900M0 410h900M0 550h900M0 690h900"/>
  </g>
  <g transform="translate(450 570)">
    <circle r="145" fill="#090b15" stroke="#c6b7ff" stroke-opacity=".26" stroke-width="3"/>
    <circle r="96" fill="none" stroke="#45e5ff" stroke-opacity=".35" stroke-width="2" stroke-dasharray="9 14"/>
    <path d="M-40-22 0-61 40-22 27 35H-27Z" fill="#d9d2ff" fill-opacity=".86"/>
    <circle cy="5" r="16" fill="#15182c"/>
  </g>
  <text x="70" y="970" fill="#fff" fill-opacity=".13" font-family="Arial, sans-serif" font-size="125" font-weight="900">TTT</text>
</svg>
